{
  "accessors": [
    {
      "bufferView": 3,
      "componentType": 5126,
      "count": 4108,
      "max": [
        3.8985047340393066,
        3.8783864974975586,
        0.2522468566894531
      ],
      "min": [
        -3.8985047340393066,
        -3.8783864974975586,
        -0.2522467374801636
      ],
      "type": "VEC3"
    },
    {
      "bufferView": 3,
      "byteOffset": 49296,
      "componentType": 5126,
      "count": 4108,
      "max": [
        1.0,
        1.0,
        1.0
      ],
      "min": [
        -1.0,
        -1.0,
        -1.0
      ],
      "type": "VEC3"
    },
    {
      "bufferView": 2,
      "componentType": 5126,
      "count": 4108,
      "max": [
        0.9672371745109558,
        0.9748488068580627
      ],
      "min": [
        0.03314399719238281,
        0.03112351894378662
      ],
      "type": "VEC2"
    },
    {
      "bufferView": 1,
      "componentType": 5125,
      "count": 4416,
      "type": "SCALAR"
    },
    {
      "bufferView": 3,
      "byteOffset": 98592,
      "componentType": 5126,
      "count": 1634,
      "max": [
        2.2048280239105225,
        2.307471513748169,
        0.6821796894073486
      ],
      "min": [
        -2.2048280239105225,
        -2.307471513748169,
        -0.6821796894073486
      ],
      "type": "VEC3"
    },
    {
      "bufferView": 3,
      "byteOffset": 118200,
      "componentType": 5126,
      "count": 1634,
      "max": [
        0.9594932794570923,
        0.994523286819458,
        1.0
      ],
      "min": [
        -0.9594932794570923,
        -0.994523286819458,
        -1.0
      ],
      "type": "VEC3"
    },
    {
      "bufferView": 2,
      "byteOffset": 32864,
      "componentType": 5126,
      "count": 1634,
      "max": [
        0.9828497171401978,
        0.360198438167572
      ],
      "min": [
        0.6401878595352173,
        0.021110504865646362
      ],
      "type": "VEC2"
    },
    {
      "bufferView": 1,
      "byteOffset": 17664,
      "componentType": 5125,
      "count": 8328,
      "type": "SCALAR"
    },
    {
      "bufferView": 5,
      "componentType": 5126,
      "count": 7,
      "max": [
        1.0,
        0.0,
        0.0,
        0.0,
        0.0,
        1.0,
        0.0,
        0.0,
        0.0,
        1.2246468525851679e-16,
        1.0,
        0.0,
        1.9939700365066528,
        2.0934336185455322,
        0.0007714257808402181,
        1.0
      ],
      "min": [
        1.0,
        0.0,
        0.0,
        0.0,
        0.0,
        -1.0,
        -1.2246468525851679e-16,
        0.0,
        0.0,
        0.0,
        -1.0,
        0.0,
        -1.9939700365066528,
        -2.0934336185455322,
        0.0,
        1.0
      ],
      "type": "MAT4"
    },
    {
      "bufferView": 0,
      "componentType": 5123,
      "count": 4108,
      "type": "VEC4"
    },
    {
      "bufferView": 4,
      "componentType": 5126,
      "count": 4108,
      "max": [
        1.0,
        0.0,
        0.0,
        0.0
      ],
      "min": [
        1.0,
        0.0,
        0.0,
        0.0
      ],
      "type": "VEC4"
    },
    {
      "bufferView": 0,
      "byteOffset": 32864,
      "componentType": 5123,
      "count": 1634,
      "type": "VEC4"
    },
    {
      "bufferView": 4,
      "byteOffset": 65728,
      "componentType": 5126,
      "count": 1634,
      "max": [
        1.0,
        0.0,
        0.0,
        0.0
      ],
      "min": [
        1.0,
        0.0,
        0.0,
        0.0
      ],
      "type": "VEC4"
    }
  ],
  "asset": {
    "extras": {
      "author": "Alucard (https://sketchfab.com/Ronald.Browen)",
      "license": "CC-BY-4.0 (http://creativecommons.org/licenses/by/4.0/)",
      "source": "https://sketchfab.com/3d-models/simple-gear-48c52f2ec4d04333b3f5fb0819177978",
      "title": "Simple Gear"
    },
    "generator": "Sketchfab-12.68.0",
    "version": "2.0"
  },
  "bufferViews": [
    {
      "buffer": 0,
      "byteLength": 45936,
      "byteStride": 8,
      "name": "shortBufferViews",
      "target": 34962
    },
    {
      "buffer": 0,
      "byteLength": 50976,
      "byteOffset": 45936,
      "name": "floatBufferViews",
      "target": 34963
    },
    {
      "buffer": 0,
      "byteLength": 45936,
      "byteOffset": 96912,
      "byteStride": 8,
      "name": "floatBufferViews",
      "target": 34962
    },
    {
      "buffer": 0,
      "byteLength": 137808,
      "byteOffset": 142848,
      "byteStride": 12,
      "name": "floatBufferViews",
      "target": 34962
    },
    {
      "buffer": 0,
      "byteLength": 91872,
      "byteOffset": 280656,
      "byteStride": 16,
      "name": "floatBufferViews",
      "target": 34962
    },
    {
      "buffer": 0,
      "byteLength": 448,
      "byteOffset": 372528,
      "name": "floatBufferViews"
    }
  ],
  "buffers": [
    {
      "byteLength": 372976,
      "uri": "scene.bin"
    }
  ],
  "materials": [
    {
      "doubleSided": true,
      "name": "gear",
      "pbrMetallicRoughness": {
        "baseColorFactor": [
          0.6281055094861525,
          0.3845776708991635,
          0.07098337480116171,
          1.0
        ],
        "metallicFactor": 0.8065929878048781,
        "roughnessFactor": 0.12633384146341464
      }
    },
    {
      "doubleSided": true,
      "name": "Center",
      "pbrMetallicRoughness": {
        "baseColorFactor": [
          0.0146695,
          0.0146695,
          0.0146695,
          1.0
        ],
        "metallicFactor": 0.34927591463414637,
        "roughnessFactor": 0.6690167682926829
      }
    }
  ],
  "meshes": [
    {
      "name": "gear_gear_0",
      "primitives": [
        {
          "attributes": {
            "JOINTS_0": 9,
            "NORMAL": 1,
            "POSITION": 0,
            "TEXCOORD_0": 2,
            "WEIGHTS_0": 10
          },
          "indices": 3,
          "material": 0,
          "mode": 4
        }
      ]
    },
    {
      "name": "gear_Center_0",
      "primitives": [
        {
          "attributes": {
            "JOINTS_0": 11,
            "NORMAL": 5,
            "POSITION": 4,
            "TEXCOORD_0": 6,
            "WEIGHTS_0": 12
          },
          "indices": 7,
          "material": 1,
          "mode": 4
        }
      ]
    }
  ],
  "nodes": [
    {
      "children": [
        1
      ],
      "matrix": [
        1.0,
        0.0,
        0.0,
        0.0,
        0.0,
        2.220446049250313e-16,
        -1.0,
        0.0,
        0.0,
        1.0,
        2.220446049250313e-16,
        0.0,
        0.0,
        0.0,
        0.0,
        1.0
      ],
      "name": "Sketchfab_model"
    },
    {
      "children": [
        2
      ],
      "matrix": [
        1.0,
        0.0,
        0.0,
        0.0,
        0.0,
        0.0,
        1.0,
        0.0,
        0.0,
        -1.0,
        0.0,
        0.0,
        0.0,
        0.0,
        0.0,
        1.0
      ],
      "name": "f11006fe4e59467994b7414984ced7ae.fbx"
    },
    {
      "children": [
        3
      ],
      "name": "RootNode"
    },
    {
      "children": [
        4
      ],
      "matrix": [
        1.0,
        0.0,
        0.0,
        0.0,
        0.0,
        -1.6292067939183141e-07,
        -0.9999999999999868,
        0.0,
        0.0,
        0.9999999999999868,
        -1.6292067939183141e-07,
        0.0,
        0.0,
        0.0,
        0.0,
        1.0
      ],
      "name": "Armature"
    },
    {
      "children": [
        5,
        13,
        14,
        12
      ],
      "name": "Object_4"
    },
    {
      "children": [
        6,
        7,
        8,
        9,
        10,
        11
      ],
      "name": "_rootJoint"
    },
    {
      "name": "Center_00",
      "rotation": [
        -0.7071068286895752,
        0.0,
        0.0,
        0.7071067094802856
      ]
    },
    {
      "name": "Gear_01",
      "rotation": [
        0.7071068286895752,
        0.0,
        0.0,
        0.7071067094802856
      ]
    },
    {
      "name": "3_02",
      "rotation": [
        -0.7071068286895752,
        0.0,
        0.0,
        0.7071067094802856
      ],
      "translation": [
        1.9939700365066528,
        -0.0007714257808402181,
        -2.0934336185455322
      ]
    },
    {
      "name": "4_03",
      "rotation": [
        -0.7071068286895752,
        0.0,
        0.0,
        0.7071067094802856
      ],
      "translation": [
        -1.9939700365066528,
        -0.0007714257808402181,
        -2.0934336185455322
      ]
    },
    {
      "name": "1_04",
      "rotation": [
        -0.7071068286895752,
        0.0,
        0.0,
        0.7071067094802856
      ],
      "translation": [
        -1.9939700365066528,
        -0.0007714257808402181,
        2.0934336185455322
      ]
    },
    {
      "name": "2_05",
      "rotation": [
        -0.7071068286895752,
        0.0,
        0.0,
        0.7071067094802856
      ],
      "translation": [
        1.9939700365066528,
        -0.0007713802624493837,
        2.0934336185455322
      ]
    },
    {
      "matrix": [
        1.0,
        0.0,
        0.0,
        0.0,
        0.0,
        6.123233995736766e-17,
        -1.0,
        0.0,
        0.0,
        1.0,
        6.123233995736766e-17,
        0.0,
        0.0,
        0.0,
        0.0,
        1.0
      ],
      "name": "Object_12"
    },
    {
      "mesh": 0,
      "name": "Object_13",
      "skin": 0
    },
    {
      "mesh": 1,
      "name": "Object_14",
      "skin": 0
    }
  ],
  "scene": 0,
  "scenes": [
    {
      "name": "Sketchfab_Scene",
      "nodes": [
        0
      ]
    }
  ],
  "skins": [
    {
      "inverseBindMatrices": 8,
      "joints": [
        5,
        6,
        7,
        8,
        9,
        10,
        11
      ],
      "skeleton": 5
    }
  ]
}
